<?xml version="1.0" standalone="no"?>
<!DOCTYPE svg PUBLIC "-//W3C//DTD SVG 20010904//EN"
 "http://www.w3.org/TR/2001/REC-SVG-20010904/DTD/svg10.dtd">
<svg version="1.0" xmlns="http://www.w3.org/2000/svg"
 width="2172.000000pt" height="2956.000000pt" viewBox="0 0 2172.000000 2956.000000"
 preserveAspectRatio="xMidYMid meet">
<metadata>
Created by potrace 1.16, written by Peter Selinger 2001-2019
</metadata>
<g transform="translate(0.000000,2956.000000) scale(0.100000,-0.100000)"
fill="#000000" stroke="none">
<path d="M25 29548 c-10 -33 -25 -657 -25 -1048 0 -899 56 -1703 176 -2555
228 -1614 691 -3197 1275 -4357 l100 -198 37 23 c20 13 828 461 1794 997 967
536 1754 978 1750 981 -4 4 -968 539 -2142 1189 -1174 651 -2139 1187 -2144
1191 -6 5 562 9 1302 9 l1311 0 1503 -807 c827 -443 1514 -811 1528 -816 22
-8 207 92 1594 862 l1568 871 1401 0 1401 0 -2162 -1302 c-1189 -717 -2162
-1305 -2162 -1308 0 -3 1733 -932 3852 -2065 2118 -1133 3858 -2065 3867
-2072 13 -10 -315 -12 -1542 -13 l-1557 0 -2963 1658 c-1629 913 -2972 1664
-2985 1671 -21 11 -185 -86 -1995 -1175 -1085 -653 -2072 -1248 -2194 -1321
l-223 -134 17 -32 c45 -89 191 -325 320 -520 814 -1229 2216 -2652 4073 -4132
720 -574 1551 -1188 2156 -1592 l121 -81 11 -154 c52 -672 63 -920 69 -1578
10 -1046 -38 -1828 -167 -2730 -339 -2366 -1182 -4405 -2479 -5990 -374 -457
-895 -979 -1338 -1337 -401 -326 -871 -637 -1224 -810 -76 -38 -138 -74 -138
-81 -1 -8 58 -189 130 -403 l132 -389 5792 0 5792 0 113 394 c62 217 110 401
107 408 -2 7 -67 51 -143 97 -358 215 -843 558 -1169 825 -427 351 -892 806
-1256 1231 -1443 1685 -2373 3960 -2698 6605 -92 744 -125 1310 -125 2110 0
665 20 1098 74 1594 11 99 20 185 20 192 0 7 33 32 73 55 1414 817 2544 1640
3647 2658 225 208 795 783 1004 1014 1450 1597 2531 3359 3279 5342 574 1522
936 3179 1052 4805 50 715 51 1547 2 2095 l-12 130 -9798 3 c-7833 2 -9798 0
-9802 -10z"/>
<path d="M20824 28700 c-248 -65 -445 -266 -510 -520 -22 -86 -22 -254 -1
-340 64 -251 259 -451 507 -519 101 -28 266 -29 374 -1 200 51 374 196 461
385 47 102 65 185 65 305 0 168 -47 308 -145 438 -90 120 -248 222 -395 256
-92 22 -266 20 -356 -4z m315 -135 c192 -46 350 -195 417 -395 14 -40 19 -84
19 -160 0 -162 -51 -286 -165 -400 -227 -227 -573 -227 -800 0 -116 116 -170
244 -170 400 0 157 54 285 170 400 144 144 336 200 529 155z"/>
<path d="M20780 28011 l0 -311 45 0 45 0 0 136 0 136 75 -4 c91 -4 107 -17
202 -165 l66 -103 54 0 c29 0 53 4 53 9 0 16 -121 195 -158 233 l-35 37 27 11
c15 5 31 10 35 10 4 0 22 16 41 35 30 31 35 43 38 99 3 53 0 71 -18 104 -40
71 -59 77 -277 80 l-193 4 0 -311z m376 196 c43 -50 24 -115 -42 -143 -21 -9
-71 -14 -139 -14 l-105 0 0 96 0 96 131 -4 c129 -3 131 -3 155 -31z"/>
</g>
</svg>
